<?xml version="1.0" encoding="utf-8"?>
<!-- Generator: Adobe Illustrator 23.0.5, SVG Export Plug-In . SVG Version: 6.00 Build 0)  -->
<svg version="1.1" id="Capa_1" xmlns="http://www.w3.org/2000/svg" xmlns:xlink="http://www.w3.org/1999/xlink" x="0px" y="0px"
	 viewBox="0 0 378 129" style="enable-background:new 0 0 378 129;" xml:space="preserve">
<style type="text/css">
	.st0{fill:url(#SVGID_1_);}
	.st1{fill:url(#SVGID_2_);}
	.st2{opacity:0.58;fill:url(#SVGID_3_);}
	.st3{fill:url(#SVGID_4_);}
	.st4{fill:#FFFFFF;}
</style>
<g>
	<g>
		
			<linearGradient id="SVGID_1_" gradientUnits="userSpaceOnUse" x1="1073.8538" y1="10.9512" x2="1048.7987" y2="42.27" gradientTransform="matrix(-1 0 0 1 1086.0078 0)">
			<stop  offset="0" style="stop-color:#DC429B"/>
			<stop  offset="1" style="stop-color:#5844A5"/>
		</linearGradient>
		<path class="st0" d="M9.26,23.09c0,2.16,0.56,4.22,1.53,6c0.22,0.38,0.44,0.75,0.69,1.13c2.28,3.31,6.1,5.47,10.38,5.47
			c3.91,0,7.41-1.78,9.66-4.56h0.03l1.34-2.03l0.03-0.06c0.97-1.78,1.5-3.81,1.5-5.94c0-2.09-0.5-4.06-1.41-5.81
			c-0.22-0.44-0.47-0.84-0.72-1.22c-2.25-3.38-6.1-5.56-10.44-5.56c-4.35,0-8.16,2.19-10.44,5.53C10.08,18.06,9.26,20.46,9.26,23.09
			z"/>
		
			<linearGradient id="SVGID_2_" gradientUnits="userSpaceOnUse" x1="1069.4894" y1="25.3592" x2="996.7491" y2="117.3551" gradientTransform="matrix(-1 0 0 1 1086.0078 0)">
			<stop  offset="0" style="stop-color:#DC429B"/>
			<stop  offset="1" style="stop-color:#5844A5"/>
		</linearGradient>
		<path class="st1" d="M75.96,118.35c2.55,0.14,5.05-0.49,7.23-1.82c5.97-3.62,7.87-11.42,4.26-17.38L62.44,58.86
			c-2.17-3.57-5.97-5.84-10.13-6.07c-4.71-0.26-9.14,2.09-11.55,6.13c-2.42,4.04-2.4,9.04,0.05,13.07l25.01,40.3
			C68,115.85,71.79,118.13,75.96,118.35"/>
		
			<linearGradient id="SVGID_3_" gradientUnits="userSpaceOnUse" x1="1085.0293" y1="122.846" x2="1053.8356" y2="151.4967" gradientTransform="matrix(-0.9835 -0.181 -0.181 0.9835 1136.3214 138.7466)">
			<stop  offset="0" style="stop-color:#000000"/>
			<stop  offset="1" style="stop-color:#000000;stop-opacity:0"/>
		</linearGradient>
		<polygon class="st2" points="64.77,62.77 49.5,85.86 65.42,111.64 86.5,97.61 		"/>
		
			<linearGradient id="SVGID_4_" gradientUnits="userSpaceOnUse" x1="997.1185" y1="64.358" x2="1077.8966" y2="64.358" gradientTransform="matrix(-1 0 0 1 1086.0078 0)">
			<stop  offset="0" style="stop-color:#DC429B"/>
			<stop  offset="1" style="stop-color:#5844A5"/>
		</linearGradient>
		<path class="st3" d="M8.97,110.5c0.93,2.38,2.53,4.4,4.65,5.84c5.76,3.95,13.65,2.46,17.59-3.29l55.47-83.06
			c2.35-3.45,2.86-7.84,1.35-11.73c-1.71-4.39-5.68-7.46-10.35-7.99c-4.68-0.54-9.23,1.54-11.88,5.43L10.32,98.75
			C7.97,102.22,7.46,106.6,8.97,110.5"/>
	</g>
	<g>
		<path class="st4" d="M117.23,80.13l15.15-19.23l-14.38-18.14c-0.45-0.58-0.84-1.17-0.84-1.94c0-1.29,1.1-2.46,2.53-2.46
			c1.04,0,1.62,0.52,2.27,1.3l13.66,17.74l13.47-17.55c0.71-0.84,1.36-1.49,2.46-1.49c1.23,0,2.33,1.04,2.33,2.4
			c0,0.65-0.26,1.3-0.71,1.81l-14.44,18.26l14.96,19.11c0.52,0.58,0.84,1.17,0.84,1.88c0,1.36-1.1,2.53-2.53,2.53
			c-1.03,0-1.62-0.52-2.27-1.3l-14.31-18.59l-14.12,18.39c-0.71,0.84-1.36,1.49-2.53,1.49c-1.16,0-2.27-1.04-2.27-2.4
			C116.52,81.3,116.78,80.65,117.23,80.13z"/>
		<path class="st4" d="M161.14,38.94c0-1.36,1.1-2.53,2.46-2.53c1.43,0,2.53,1.17,2.53,2.53v30.7l18.14-18.46
			c0.58-0.65,1.17-0.97,1.94-0.97c1.36,0,2.27,1.1,2.27,2.33c0,0.78-0.32,1.29-0.97,1.94l-10.94,10.75l11.98,15.09
			c0.45,0.58,0.65,1.04,0.65,1.68c0,1.36-1.04,2.33-2.4,2.33c-0.91,0-1.49-0.32-2.14-1.17l-11.59-14.64l-6.93,6.86v6.41
			c0,1.42-1.03,2.53-2.46,2.53c-1.43,0-2.53-1.1-2.53-2.53V38.94z"/>
		<path class="st4" d="M194.69,40.04c0-1.62,1.29-2.66,2.91-2.66c1.68,0,2.98,1.04,2.98,2.66v0.84c0,1.56-1.29,2.66-2.98,2.66
			c-1.62,0-2.91-1.1-2.91-2.66V40.04z M195.14,52.73c0-1.36,1.1-2.53,2.46-2.53c1.43,0,2.53,1.1,2.53,2.53v29.08
			c0,1.42-1.03,2.53-2.46,2.53c-1.43,0-2.53-1.1-2.53-2.53V52.73z"/>
		<path class="st4" d="M208.48,52.73c0-1.36,1.1-2.53,2.46-2.53c1.43,0,2.53,1.1,2.53,2.53v3.63c2.2-3.63,5.7-6.54,11.47-6.54
			c8.1,0,12.82,5.44,12.82,13.41v18.59c0,1.42-1.1,2.53-2.46,2.53c-1.42,0-2.53-1.1-2.53-2.53V64.46c0-6.22-3.37-10.1-9.26-10.1
			c-5.76,0-10.04,4.21-10.04,10.49v16.97c0,1.42-1.03,2.53-2.46,2.53s-2.53-1.1-2.53-2.53V52.73z"/>
		<path class="st4" d="M246.88,75.14V54.94h-2.72c-1.17,0-2.2-1.04-2.2-2.2c0-1.23,1.04-2.2,2.2-2.2h2.72v-7.9
			c0-1.36,1.04-2.53,2.46-2.53c1.36,0,2.53,1.16,2.53,2.53v7.9h8.68c1.23,0,2.27,1.04,2.27,2.2c0,1.23-1.03,2.2-2.27,2.2h-8.68
			v19.56c0,4.08,2.27,5.57,5.64,5.57c1.75,0,2.65-0.45,3.04-0.45c1.17,0,2.14,0.97,2.14,2.14c0,0.91-0.58,1.62-1.42,1.94
			c-1.43,0.58-2.98,0.91-4.92,0.91C250.96,84.6,246.88,81.94,246.88,75.14z"/>
		<path class="st4" d="M281.73,84.79c-9.2,0-16.71-7.06-16.71-17.42v-0.13c0-9.65,6.8-17.42,16.06-17.42
			c9.91,0,15.55,8.1,15.55,16.97c0,1.36-1.1,2.33-2.33,2.33h-24.22c0.71,7.25,5.83,11.33,11.79,11.33c4.15,0,7.19-1.62,9.65-3.89
			c0.39-0.32,0.84-0.58,1.42-0.58c1.23,0,2.2,0.97,2.2,2.14c0,0.58-0.26,1.17-0.78,1.62C291.18,82.78,287.43,84.79,281.73,84.79z
			 M291.64,65.43c-0.52-6.09-4.02-11.4-10.69-11.4c-5.83,0-10.23,4.86-10.88,11.4H291.64z"/>
		<path class="st4" d="M300.12,67.44v-0.13c0-9.46,7.38-17.49,17.16-17.49c5.57,0,9.33,2.14,12.31,4.86
			c0.39,0.32,0.78,0.97,0.78,1.75c0,1.36-1.1,2.4-2.4,2.4c-0.65,0-1.23-0.26-1.62-0.58c-2.4-2.2-5.12-4.02-9.13-4.02
			c-6.8,0-11.98,5.76-11.98,12.95v0.13c0,7.25,5.31,13.02,12.31,13.02c3.82,0,6.86-1.75,9.33-4.08c0.32-0.32,0.78-0.65,1.42-0.65
			c1.23,0,2.27,1.1,2.27,2.27c0,0.58-0.26,1.17-0.65,1.56c-3.17,3.17-6.99,5.38-12.63,5.38C307.5,84.79,300.12,76.83,300.12,67.44z"
			/>
		<path class="st4" d="M335.94,38.94c0-1.36,1.1-2.53,2.46-2.53c1.43,0,2.53,1.17,2.53,2.53v17.42c2.2-3.63,5.7-6.54,11.47-6.54
			c8.1,0,12.82,5.44,12.82,13.41v18.59c0,1.42-1.1,2.53-2.46,2.53c-1.42,0-2.53-1.1-2.53-2.53V64.46c0-6.22-3.37-10.1-9.26-10.1
			c-5.76,0-10.04,4.21-10.04,10.49v16.97c0,1.42-1.03,2.53-2.46,2.53c-1.43,0-2.53-1.1-2.53-2.53V38.94z"/>
	</g>
</g>
</svg>
