<?xml version="1.0" encoding="utf-8"?>
<!-- Generator: Adobe Illustrator 23.0.5, SVG Export Plug-In . SVG Version: 6.00 Build 0)  -->
<svg version="1.1" id="Capa_1" xmlns="http://www.w3.org/2000/svg" xmlns:xlink="http://www.w3.org/1999/xlink" x="0px" y="0px"
	 viewBox="0 0 210 75" style="enable-background:new 0 0 210 75;" xml:space="preserve">
<style type="text/css">
	.st0{fill:#FFFFFF;}
	.st1{opacity:0.58;fill:url(#SVGID_1_);}
</style>
<g>
	<g>
		<path class="st0" d="M12.26,16.67c0,1.13,0.29,2.21,0.8,3.15c0.11,0.2,0.23,0.39,0.36,0.59c1.2,1.74,3.2,2.87,5.44,2.87
			c2.05,0,3.88-0.93,5.06-2.39h0.02l0.7-1.07l0.02-0.03c0.51-0.93,0.79-2,0.79-3.11c0-1.1-0.26-2.13-0.74-3.05
			c-0.11-0.23-0.25-0.44-0.38-0.64c-1.18-1.77-3.2-2.92-5.47-2.92c-2.28,0-4.28,1.15-5.47,2.9C12.68,14.03,12.26,15.3,12.26,16.67z"
			/>
		<path class="st0" d="M47.22,66.61c1.34,0.07,2.65-0.26,3.79-0.96c3.13-1.9,4.13-5.98,2.23-9.11L40.13,35.42
			c-1.14-1.87-3.13-3.06-5.31-3.18c-2.47-0.13-4.79,1.1-6.05,3.21c-1.27,2.12-1.26,4.74,0.02,6.85L41.9,63.43
			C43.05,65.3,45.03,66.49,47.22,66.61"/>
		
			<linearGradient id="SVGID_1_" gradientUnits="userSpaceOnUse" x1="1104.3469" y1="100.4889" x2="1087.9951" y2="115.5076" gradientTransform="matrix(-0.9835 -0.181 -0.181 0.9835 1136.3214 138.7466)">
			<stop  offset="0" style="stop-color:#000000"/>
			<stop  offset="1" style="stop-color:#000000;stop-opacity:0"/>
		</linearGradient>
		<polygon class="st1" points="41.35,37.47 33.35,49.58 41.7,63.09 52.74,55.73 		"/>
		<path class="st0" d="M12.1,62.49c0.49,1.25,1.33,2.31,2.44,3.06c3.02,2.07,7.15,1.29,9.22-1.73l29.08-43.54
			c1.23-1.81,1.5-4.11,0.71-6.15c-0.89-2.3-2.98-3.91-5.42-4.19c-2.45-0.28-4.84,0.81-6.23,2.85L12.81,56.33
			C11.58,58.15,11.31,60.45,12.1,62.49"/>
	</g>
	<g>
		<path class="st0" d="M68.85,46.57l7.94-10.08l-7.54-9.51c-0.24-0.31-0.44-0.61-0.44-1.02c0-0.68,0.58-1.29,1.32-1.29
			c0.54,0,0.85,0.27,1.19,0.68l7.16,9.3l7.06-9.2c0.37-0.44,0.71-0.78,1.29-0.78c0.64,0,1.22,0.54,1.22,1.26
			c0,0.34-0.14,0.68-0.37,0.95l-7.57,9.57l7.84,10.01c0.27,0.31,0.44,0.61,0.44,0.99c0,0.71-0.58,1.32-1.32,1.32
			c-0.54,0-0.85-0.27-1.19-0.68l-7.5-9.74L70.99,48c-0.37,0.44-0.71,0.78-1.32,0.78c-0.61,0-1.19-0.54-1.19-1.26
			C68.48,47.18,68.62,46.84,68.85,46.57z"/>
		<path class="st0" d="M91.87,24.98c0-0.71,0.58-1.32,1.29-1.32c0.75,0,1.32,0.61,1.32,1.32v16.09l9.51-9.68
			c0.31-0.34,0.61-0.51,1.02-0.51c0.71,0,1.19,0.58,1.19,1.22c0,0.41-0.17,0.68-0.51,1.02l-5.74,5.64l6.28,7.91
			c0.24,0.31,0.34,0.54,0.34,0.88c0,0.71-0.54,1.22-1.26,1.22c-0.47,0-0.78-0.17-1.12-0.61l-6.08-7.67l-3.63,3.6v3.36
			c0,0.75-0.54,1.32-1.29,1.32c-0.75,0-1.32-0.58-1.32-1.32V24.98z"/>
		<path class="st0" d="M109.46,25.56c0-0.85,0.68-1.39,1.53-1.39c0.88,0,1.56,0.54,1.56,1.39V26c0,0.82-0.68,1.39-1.56,1.39
			c-0.85,0-1.53-0.58-1.53-1.39V25.56z M109.69,32.21c0-0.71,0.58-1.32,1.29-1.32c0.75,0,1.32,0.58,1.32,1.32v15.24
			c0,0.75-0.54,1.32-1.29,1.32c-0.75,0-1.32-0.58-1.32-1.32V32.21z"/>
		<path class="st0" d="M116.69,32.21c0-0.71,0.58-1.32,1.29-1.32c0.75,0,1.32,0.58,1.32,1.32v1.9c1.15-1.9,2.99-3.43,6.01-3.43
			c4.24,0,6.72,2.85,6.72,7.03v9.74c0,0.75-0.58,1.32-1.29,1.32c-0.75,0-1.32-0.58-1.32-1.32v-9.1c0-3.26-1.77-5.3-4.86-5.3
			c-3.02,0-5.26,2.21-5.26,5.5v8.9c0,0.75-0.54,1.32-1.29,1.32c-0.75,0-1.32-0.58-1.32-1.32V32.21z"/>
		<path class="st0" d="M136.82,43.96V33.37h-1.43c-0.61,0-1.15-0.54-1.15-1.15c0-0.65,0.54-1.15,1.15-1.15h1.43v-4.14
			c0-0.71,0.54-1.32,1.29-1.32c0.71,0,1.32,0.61,1.32,1.32v4.14h4.55c0.65,0,1.19,0.54,1.19,1.15c0,0.64-0.54,1.15-1.19,1.15h-4.55
			v10.25c0,2.14,1.19,2.92,2.95,2.92c0.92,0,1.39-0.24,1.6-0.24c0.61,0,1.12,0.51,1.12,1.12c0,0.47-0.3,0.85-0.75,1.02
			c-0.75,0.31-1.56,0.48-2.58,0.48C138.96,48.91,136.82,47.52,136.82,43.96z"/>
		<path class="st0" d="M155.08,49.02c-4.82,0-8.76-3.7-8.76-9.13v-0.07c0-5.06,3.57-9.13,8.42-9.13c5.19,0,8.15,4.24,8.15,8.9
			c0,0.71-0.58,1.22-1.22,1.22h-12.7c0.37,3.8,3.06,5.94,6.18,5.94c2.17,0,3.77-0.85,5.06-2.04c0.2-0.17,0.44-0.31,0.75-0.31
			c0.65,0,1.15,0.51,1.15,1.12c0,0.31-0.14,0.61-0.41,0.85C160.04,47.96,158.07,49.02,155.08,49.02z M160.28,38.86
			c-0.27-3.19-2.1-5.98-5.6-5.98c-3.05,0-5.36,2.55-5.7,5.98H160.28z"/>
		<path class="st0" d="M164.72,39.92v-0.07c0-4.96,3.87-9.17,9-9.17c2.92,0,4.89,1.12,6.45,2.55c0.2,0.17,0.41,0.51,0.41,0.92
			c0,0.71-0.58,1.26-1.26,1.26c-0.34,0-0.64-0.14-0.85-0.31c-1.26-1.15-2.68-2.1-4.79-2.1c-3.56,0-6.28,3.02-6.28,6.79v0.07
			c0,3.8,2.78,6.82,6.45,6.82c2,0,3.6-0.92,4.89-2.14c0.17-0.17,0.41-0.34,0.75-0.34c0.65,0,1.19,0.58,1.19,1.19
			c0,0.31-0.14,0.61-0.34,0.82c-1.66,1.66-3.67,2.82-6.62,2.82C168.59,49.02,164.72,44.84,164.72,39.92z"/>
		<path class="st0" d="M183.5,24.98c0-0.71,0.58-1.32,1.29-1.32c0.75,0,1.32,0.61,1.32,1.32v9.13c1.15-1.9,2.99-3.43,6.01-3.43
			c4.24,0,6.72,2.85,6.72,7.03v9.74c0,0.75-0.58,1.32-1.29,1.32c-0.75,0-1.32-0.58-1.32-1.32v-9.1c0-3.26-1.77-5.3-4.86-5.3
			c-3.02,0-5.26,2.21-5.26,5.5v8.9c0,0.75-0.54,1.32-1.29,1.32c-0.75,0-1.32-0.58-1.32-1.32V24.98z"/>
	</g>
</g>
</svg>
